# xmcd
#
# Track frame offsets:
#	150
#	13237
#	26455
#	42859
#	59925
#	73447
#	121198
#	137175
#	153285
#	181109
#	208026
#
# Disc length: 3353 seconds
#
# Revision: 0
# Processed by: cddbd v1.5.2PL0 Copyright (c) Steve Scherf et al.
# Submitted via: EasyCDDAExtractor 11.5.0.1
#
DISCID=a10d170b
DTITLE=Gary Moore - Bad For You Baby
DYEAR=2008
DGENRE=Blues
TTITLE0=Bad For You Baby
TTITLE1=Down The Line
TTITLE2=Umbrella Man
TTITLE3=Holding On
TTITLE4=Walking' Thru The Park
TTITLE5=I Love You More Than You'll Ever Know
TTITLE6=Mojo Boogie
TTITLE7=Someday Baby
TTITLE8=Did You Ever Feel Lonely
TTITLE9=Preacher Man Blues
TTITLE10=Trouble Ain't Far Behind
EXTD=
EXTT0=
EXTT1=
EXTT2=
EXTT3=
EXTT4=
EXTT5=
EXTT6=
EXTT7=
EXTT8=
EXTT9=
EXTT10=
PLAYORDER=
